<svg clip-rule="evenodd" fill-rule="evenodd" stroke-linejoin="bevel" stroke-miterlimit="1" viewBox="0 0 1024 240" xmlns="http://www.w3.org/2000/svg" xmlns:xlink="http://www.w3.org/1999/xlink"><linearGradient id="a" gradientTransform="matrix(38.0486 194.381 -232.688 31.7847 78.7172 255.447)" gradientUnits="userSpaceOnUse" x1="0" x2="1" y1="0" y2="0"><stop offset="0" stop-color="#edd97e"/><stop offset="1" stop-color="#ffd000"/></linearGradient><path d="m0 455.936v-200.489h904l120 100.244-120 100.245zm880.056-129.682c-19.448 0-35.238 13.191-35.238 29.437 0 16.247 15.79 29.438 35.238 29.438 19.449 0 35.239-13.191 35.239-29.438 0-16.246-15.79-29.437-35.239-29.437z" fill="url(#a)" transform="matrix(1 0 0 1.19707 0 -305.788)"/><g fill="none" stroke="#343031"><path d="m709.563 84.762v60.157" stroke-width="3" transform="translate(-25.42969 5.15968)"/><path d="m709.563 84.762v60.157" stroke-width="3" transform="translate(-15.42969 5.15968)"/><path d="m709.563 84.762v60.157" stroke-width="6" transform="translate(-.42969 5.15968)"/><path d="m709.563 84.762v60.157" stroke-width="3" transform="translate(14.57031 5.15968)"/><path d="m709.563 84.762v60.157" stroke-width="3" transform="translate(24.57031 5.15968)"/><path d="m709.563 84.762v60.157" stroke-width="6" transform="translate(39.57031 5.15968)"/><path d="m709.563 84.762v60.157" stroke-width="3" transform="translate(64.57031 5.15968)"/><path d="m709.563 84.762v60.157" stroke-width="3" transform="translate(74.57031 5.15968)"/><path d="m709.563 84.762v60.157" stroke-width="6" transform="translate(89.57031 5.15968)"/></g><g fill="#343031" fill-rule="nonzero"><path d="m.139-.041v-.489h-.035c-.009 0-.016-.002-.021-.006-.004-.004-.006-.009-.006-.015s.002-.011.006-.015c.005-.003.012-.005.021-.005h.221c.035 0 .066.007.095.021.028.015.05.031.065.049.026.031.045.064.058.098.01.025.015.055.015.089v.057c0 .042-.01.082-.028.122-.019.039-.05.073-.093.103-.032.021-.069.032-.112.032h-.221c-.009 0-.016-.002-.021-.006-.004-.004-.006-.009-.006-.015s.002-.011.006-.014c.005-.004.012-.006.021-.006zm.041 0h.149c.035 0 .067-.011.097-.034.03-.022.053-.049.068-.081.015-.031.023-.062.023-.093v-.074c0-.025-.004-.048-.013-.068-.011-.029-.028-.056-.049-.082-.012-.014-.029-.028-.052-.039-.023-.012-.048-.018-.074-.018h-.149z" transform="matrix(54.48527875 0 0 54.48527875 37.300933 144.041418)"/><path d="m.167-.276v.235h.315v-.121c0-.01.002-.017.006-.021.003-.004.008-.006.014-.006.007 0 .012.002.015.006.004.004.006.011.006.021v.162h-.453c-.009 0-.016-.002-.021-.006-.004-.004-.006-.009-.006-.015s.002-.011.006-.014c.005-.004.012-.006.021-.006h.055v-.489h-.055c-.009 0-.016-.002-.021-.006-.004-.004-.006-.009-.006-.015s.002-.011.006-.015c.005-.003.012-.005.021-.005h.431v.141c0 .01-.001.017-.005.021s-.009.006-.015.006-.011-.002-.015-.006-.006-.011-.006-.021v-.1h-.293v.213h.146v-.046c0-.01.002-.017.006-.021.004-.005.009-.007.015-.007s.011.002.015.007c.004.004.006.011.006.021v.134c0 .009-.002.016-.006.021-.004.004-.009.006-.015.006s-.011-.002-.015-.006c-.004-.005-.006-.012-.006-.021v-.047z" transform="matrix(54.48527875 0 0 54.48527875 69.998027 144.041418)"/><path d="m.447-.53v-.014c0-.01.002-.017.005-.021.004-.004.009-.006.015-.006s.011.002.015.006.006.011.006.021v.105c0 .009-.002.016-.006.021-.004.004-.009.006-.015.006s-.01-.002-.014-.006-.006-.01-.006-.019c-.002-.027-.016-.052-.042-.074-.027-.022-.062-.032-.105-.032-.045 0-.081.011-.108.034-.026.024-.04.051-.04.083 0 .016.004.031.012.044.007.014.017.024.029.033.013.008.027.015.042.02.016.005.04.01.074.016.055.009.094.018.115.027.028.013.05.031.064.053.015.023.022.049.022.08 0 .047-.019.087-.056.12-.038.033-.088.049-.152.049-.071 0-.128-.022-.171-.067v.024c0 .009-.002.016-.005.021-.004.004-.009.006-.015.006s-.011-.002-.015-.006c-.004-.005-.006-.012-.006-.021v-.114c0-.01.002-.017.006-.021s.009-.006.015-.006.011.001.014.005c.004.004.006.011.006.019.002.03.018.058.048.082.031.025.072.037.123.037.052 0 .092-.013.122-.038.03-.026.045-.057.045-.092 0-.021-.006-.04-.017-.057-.012-.017-.029-.03-.051-.04-.016-.007-.048-.014-.098-.023-.068-.011-.117-.029-.147-.052-.03-.024-.045-.057-.045-.1s.017-.08.052-.111c.034-.031.08-.046.136-.046.057 0 .106.018.148.054z" transform="matrix(54.48527875 0 0 54.48527875 102.694424 144.041418)"/><path d="m.32-.53v.489h.107c.01 0 .017.002.021.006.004.003.006.008.006.014s-.002.011-.006.015-.011.006-.021.006h-.255c-.009 0-.016-.002-.021-.006-.004-.004-.006-.009-.006-.015s.002-.011.006-.014c.005-.004.012-.006.021-.006h.107v-.489h-.168v.142c0 .01-.002.017-.006.021-.004.005-.008.007-.015.007-.006 0-.01-.002-.014-.007-.004-.004-.006-.011-.006-.021v-.183h.459v.183c0 .01-.002.017-.005.021-.004.005-.009.007-.015.007s-.011-.002-.015-.007c-.004-.004-.006-.011-.006-.021v-.142z" transform="matrix(54.48527875 0 0 54.48527875 135.390821 144.041418)"/><path d="m.321-.53v.489h.14c.01 0 .017.002.021.006.005.003.007.008.007.014s-.002.011-.007.015c-.004.004-.011.006-.021.006h-.322c-.01 0-.017-.002-.021-.006s-.006-.009-.006-.015.002-.011.006-.014c.004-.004.011-.006.021-.006h.141v-.489h-.141c-.01 0-.017-.002-.021-.006s-.006-.009-.006-.015.002-.011.006-.015c.004-.003.011-.005.021-.005h.322c.01 0 .017.002.021.005.005.004.007.009.007.015s-.002.011-.007.015c-.004.004-.011.006-.021.006z" transform="matrix(54.48527875 0 0 54.48527875 168.087218 144.041418)"/><path d="m.501 0h-.053l-.302-.511v.47h.076c.01 0 .017.002.021.006.004.003.007.008.007.014s-.003.011-.007.015-.011.006-.021.006h-.151c-.01 0-.017-.002-.022-.006-.004-.004-.006-.009-.006-.015s.002-.011.006-.014c.005-.004.012-.006.022-.006h.034v-.489h-.055c-.01 0-.017-.002-.021-.006s-.007-.009-.007-.015.003-.011.007-.015c.004-.003.011-.005.021-.005h.107l.303.512v-.471h-.076c-.009 0-.016-.002-.021-.006-.004-.004-.006-.009-.006-.015s.002-.011.006-.015c.004-.003.011-.005.021-.005h.152c.009 0 .016.002.021.005.004.004.006.009.006.015s-.002.011-.006.015c-.005.004-.012.006-.021.006h-.035z" transform="matrix(54.48527875 0 0 54.48527875 200.783615 144.041418)"/><path d="m.435-.191h-.269l-.056.15h.079c.01 0 .017.002.021.006.004.003.006.008.006.014s-.002.011-.006.015-.011.006-.021.006h-.153c-.01 0-.017-.002-.021-.006-.005-.004-.007-.009-.007-.015s.002-.011.007-.014c.004-.004.011-.006.021-.006h.031l.182-.489h-.122c-.009 0-.016-.002-.021-.006-.004-.004-.006-.009-.006-.015s.002-.011.006-.015c.005-.003.012-.005.021-.005h.207l.2.53h.032c.01 0 .017.002.021.006.004.003.006.008.006.014s-.002.011-.006.015-.011.006-.021.006h-.153c-.01 0-.017-.002-.021-.006-.005-.004-.007-.009-.007-.015s.002-.011.007-.014c.004-.004.011-.006.021-.006h.078zm-.016-.041-.113-.298h-.015l-.11.298z" transform="matrix(54.48527875 0 0 54.48527875 233.480012 144.041418)"/><path d="m.32-.53v.489h.107c.01 0 .017.002.021.006.004.003.006.008.006.014s-.002.011-.006.015-.011.006-.021.006h-.255c-.009 0-.016-.002-.021-.006-.004-.004-.006-.009-.006-.015s.002-.011.006-.014c.005-.004.012-.006.021-.006h.107v-.489h-.168v.142c0 .01-.002.017-.006.021-.004.005-.008.007-.015.007-.006 0-.01-.002-.014-.007-.004-.004-.006-.011-.006-.021v-.183h.459v.183c0 .01-.002.017-.005.021-.004.005-.009.007-.015.007s-.011-.002-.015-.007c-.004-.004-.006-.011-.006-.021v-.142z" transform="matrix(54.48527875 0 0 54.48527875 266.176409 144.041418)"/><path d="m.321-.53v.489h.14c.01 0 .017.002.021.006.005.003.007.008.007.014s-.002.011-.007.015c-.004.004-.011.006-.021.006h-.322c-.01 0-.017-.002-.021-.006s-.006-.009-.006-.015.002-.011.006-.014c.004-.004.011-.006.021-.006h.141v-.489h-.141c-.01 0-.017-.002-.021-.006s-.006-.009-.006-.015.002-.011.006-.015c.004-.003.011-.005.021-.005h.322c.01 0 .017.002.021.005.005.004.007.009.007.015s-.002.011-.007.015c-.004.004-.011.006-.021.006z" transform="matrix(54.48527875 0 0 54.48527875 298.873503 144.041418)"/><path d="m.551-.284c0 .055-.011.105-.033.152-.023.047-.053.083-.092.109-.039.026-.081.039-.125.039-.066 0-.124-.028-.175-.084-.05-.056-.075-.128-.075-.216s.025-.16.075-.216c.051-.056.109-.084.175-.084.044 0 .086.013.125.039s.069.062.091.108c.023.047.034.098.034.153zm-.042 0c0-.067-.019-.127-.058-.18s-.089-.079-.15-.079c-.058 0-.107.025-.148.075-.041.051-.061.112-.061.184 0 .076.021.138.064.187.043.048.091.072.145.072.061 0 .111-.026.15-.079s.058-.113.058-.18z" transform="matrix(54.48527875 0 0 54.48527875 331.5699 144.041418)"/><path d="m.501 0h-.053l-.302-.511v.47h.076c.01 0 .017.002.021.006.004.003.007.008.007.014s-.003.011-.007.015-.011.006-.021.006h-.151c-.01 0-.017-.002-.022-.006-.004-.004-.006-.009-.006-.015s.002-.011.006-.014c.005-.004.012-.006.022-.006h.034v-.489h-.055c-.01 0-.017-.002-.021-.006s-.007-.009-.007-.015.003-.011.007-.015c.004-.003.011-.005.021-.005h.107l.303.512v-.471h-.076c-.009 0-.016-.002-.021-.006-.004-.004-.006-.009-.006-.015s.002-.011.006-.015c.004-.003.011-.005.021-.005h.152c.009 0 .016.002.021.005.004.004.006.009.006.015s-.002.011-.006.015c-.005.004-.012.006-.021.006h-.035z" transform="matrix(54.48527875 0 0 54.48527875 364.266297 144.041418)"/><path d="m.292-.423h.017c.018 0 .034.007.047.02s.019.028.019.046c0 .019-.006.035-.019.048s-.029.019-.047.019h-.017c-.019 0-.034-.007-.047-.02s-.02-.028-.02-.046c0-.019.007-.035.02-.048s.029-.019.047-.019zm0 .305h.017c.018 0 .034.007.047.02.013.012.019.028.019.046 0 .019-.006.035-.019.048-.013.012-.029.019-.047.019h-.017c-.019 0-.034-.007-.047-.02-.013-.012-.02-.028-.02-.046 0-.019.007-.035.02-.048.013-.012.029-.019.047-.019z" transform="matrix(54.48527875 0 0 54.48527875 396.962694 144.041418)"/><path d="m.201-.276v.235h.141c.01 0 .017.002.021.006.004.003.006.008.006.014s-.002.011-.006.015-.011.006-.021.006h-.237c-.01 0-.017-.002-.021-.006s-.006-.009-.006-.015.002-.011.006-.014c.004-.004.011-.006.021-.006h.055v-.489h-.055c-.01 0-.017-.002-.021-.006s-.006-.009-.006-.015.002-.011.007-.015c.004-.004.01-.005.02-.005h.452v.141c0 .01-.002.017-.006.021s-.009.006-.015.006-.011-.002-.015-.006-.006-.011-.006-.021v-.1h-.314v.213h.147v-.046c0-.01.002-.017.006-.021.004-.005.009-.007.015-.007s.011.002.015.007c.004.004.006.011.006.021v.134c0 .009-.002.016-.006.021-.004.004-.009.006-.015.006s-.011-.002-.015-.006c-.004-.005-.006-.012-.006-.021v-.047z" transform="matrix(37.46896283 0 0 37.46896283 37.333851 221.132985)"/><path d="m.229-.53v.489h.272v-.163c0-.01.002-.017.006-.021s.009-.006.015-.006.011.002.015.006.006.011.006.021v.204h-.453c-.01 0-.017-.002-.021-.006s-.006-.009-.006-.015.002-.011.006-.014c.004-.004.011-.006.021-.006h.098v-.489h-.098c-.01 0-.017-.002-.021-.006s-.006-.009-.006-.015.002-.011.006-.015c.004-.003.011-.005.021-.005h.237c.009 0 .016.002.021.005.004.004.006.009.006.015s-.002.011-.006.015c-.005.004-.012.006-.021.006z" transform="matrix(37.46896283 0 0 37.46896283 59.819305 221.132985)"/><path d="m.321-.53v.489h.14c.01 0 .017.002.021.006.005.003.007.008.007.014s-.002.011-.007.015c-.004.004-.011.006-.021.006h-.322c-.01 0-.017-.002-.021-.006s-.006-.009-.006-.015.002-.011.006-.014c.004-.004.011-.006.021-.006h.141v-.489h-.141c-.01 0-.017-.002-.021-.006s-.006-.009-.006-.015.002-.011.006-.015c.004-.003.011-.005.021-.005h.322c.01 0 .017.002.021.005.005.004.007.009.007.015s-.002.011-.007.015c-.004.004-.011.006-.021.006z" transform="matrix(37.46896283 0 0 37.46896283 82.304279 221.132985)"/><path d="m.523-.212v.176c-.031.017-.062.03-.094.039-.031.009-.062.013-.093.013-.044 0-.082-.006-.116-.019-.033-.013-.061-.032-.084-.055-.023-.024-.041-.05-.054-.079s-.019-.065-.019-.11v-.075c0-.045.011-.089.033-.131.022-.043.053-.075.092-.098.038-.022.08-.033.126-.033.066 0 .122.018.167.054 0-.016.001-.026.002-.029s.004-.006.007-.009c.004-.002.008-.003.012-.003.006 0 .011.002.015.006s.006.011.006.021v.093c0 .01-.002.017-.006.021s-.009.006-.015.006c-.005 0-.01-.002-.013-.005-.004-.004-.006-.011-.007-.02-.002-.028-.02-.051-.054-.068-.034-.018-.071-.026-.111-.026-.037 0-.071.008-.102.024-.03.017-.059.048-.085.094-.018.03-.026.065-.026.103v.075c0 .068.02.122.062.162s.099.06.172.06c.025 0 .048-.003.069-.008s.046-.014.074-.027v-.152h-.141c-.009 0-.016-.002-.021-.006-.004-.003-.006-.008-.006-.014 0-.007.002-.012.006-.016.005-.003.012-.005.021-.005h.198c.009 0 .016.002.021.006.004.003.006.008.006.015 0 .004-.001.008-.004.011-.003.004-.005.006-.009.007-.003.002-.013.002-.029.002z" transform="matrix(37.46896283 0 0 37.46896283 104.789253 221.132985)"/><path d="m.439-.276h-.272v.235h.055c.01 0 .017.002.021.006.004.003.007.008.007.014s-.003.011-.007.015-.011.006-.021.006h-.142c-.01 0-.017-.002-.021-.006-.005-.004-.007-.009-.007-.015s.002-.011.007-.014c.004-.004.011-.006.021-.006h.046v-.489h-.025c-.011 0-.018-.002-.022-.006s-.006-.009-.006-.015.002-.011.006-.015c.004-.003.011-.005.022-.005h.121c.01 0 .017.002.021.005.004.004.007.009.007.015s-.003.011-.007.015-.011.006-.021.006h-.055v.213h.272v-.213h-.055c-.009 0-.016-.002-.021-.006-.004-.004-.006-.009-.006-.015s.002-.011.006-.015c.004-.003.011-.005.021-.005h.122c.01 0 .017.002.021.005.005.004.007.009.007.015s-.002.011-.007.015c-.004.004-.011.006-.021.006h-.026v.489h.047c.01 0 .017.002.021.006.004.003.006.008.006.014s-.002.011-.006.015-.011.006-.021.006h-.143c-.009 0-.016-.002-.021-.006-.004-.004-.006-.009-.006-.015s.002-.011.006-.014c.004-.004.011-.006.021-.006h.055z" transform="matrix(37.46896283 0 0 37.46896283 127.274227 221.132985)"/><path d="m.32-.53v.489h.107c.01 0 .017.002.021.006.004.003.006.008.006.014s-.002.011-.006.015-.011.006-.021.006h-.255c-.009 0-.016-.002-.021-.006-.004-.004-.006-.009-.006-.015s.002-.011.006-.014c.005-.004.012-.006.021-.006h.107v-.489h-.168v.142c0 .01-.002.017-.006.021-.004.005-.008.007-.015.007-.006 0-.01-.002-.014-.007-.004-.004-.006-.011-.006-.021v-.183h.459v.183c0 .01-.002.017-.005.021-.004.005-.009.007-.015.007s-.011-.002-.015-.007c-.004-.004-.006-.011-.006-.021v-.142z" transform="matrix(37.46896283 0 0 37.46896283 149.759201 221.132985)"/><path d="m.292-.423h.017c.018 0 .034.007.047.02s.019.028.019.046c0 .019-.006.035-.019.048s-.029.019-.047.019h-.017c-.019 0-.034-.007-.047-.02s-.02-.028-.02-.046c0-.019.007-.035.02-.048s.029-.019.047-.019zm0 .305h.017c.018 0 .034.007.047.02.013.012.019.028.019.046 0 .019-.006.035-.019.048-.013.012-.029.019-.047.019h-.017c-.019 0-.034-.007-.047-.02-.013-.012-.02-.028-.02-.046 0-.019.007-.035.02-.048.013-.012.029-.019.047-.019z" transform="matrix(37.46896283 0 0 37.46896283 172.244175 221.132985)"/><path d="m.211-.234v.193h.141c.009 0 .016.002.021.006.004.003.006.008.006.014s-.002.011-.006.015c-.005.004-.012.006-.021.006h-.237c-.01 0-.017-.002-.021-.006s-.007-.009-.007-.015.003-.011.007-.014c.004-.004.011-.006.021-.006h.055v-.489h-.055c-.01 0-.017-.002-.021-.006s-.007-.009-.007-.015.003-.011.007-.015c.004-.003.011-.005.021-.005h.238c.056 0 .102.016.138.05.036.033.053.072.053.116 0 .027-.005.05-.017.072-.011.021-.025.037-.042.049-.024.019-.049.032-.075.04-.019.007-.043.01-.071.01zm0-.041h.131c.03 0 .058-.007.085-.021.027-.013.046-.03.058-.049.012-.02.018-.04.018-.06 0-.032-.013-.061-.041-.087-.028-.025-.063-.038-.105-.038h-.146z" transform="matrix(37.46896283 0 0 37.46896283 217.214603 221.132985)"/><path d="m.167-.255v.214h.075c.01 0 .017.002.022.006.004.003.006.008.006.014s-.002.011-.006.015c-.005.004-.012.006-.022.006h-.172c-.009 0-.016-.002-.021-.006-.004-.004-.006-.009-.006-.015s.002-.011.006-.014c.005-.004.012-.006.021-.006h.055v-.489h-.055c-.009 0-.016-.002-.021-.006-.004-.004-.006-.009-.006-.015s.002-.011.006-.015c.005-.003.012-.005.021-.005h.248c.051 0 .095.016.13.048.035.033.052.069.052.11 0 .029-.011.057-.032.083-.022.026-.058.047-.109.064.029.021.054.043.075.069.021.025.054.077.1.156h.031c.01 0 .017.002.021.006.005.003.007.008.007.014s-.002.011-.007.015c-.004.004-.011.006-.021.006h-.054c-.051-.091-.09-.152-.118-.183s-.06-.055-.096-.072zm0-.041h.111c.036 0 .069-.006.098-.019s.05-.029.063-.046c.013-.018.02-.036.02-.054 0-.027-.014-.053-.041-.078-.028-.025-.061-.037-.101-.037h-.15z" transform="matrix(37.46896283 0 0 37.46896283 239.699577 221.132985)"/><path d="m.551-.284c0 .055-.011.105-.033.152-.023.047-.053.083-.092.109-.039.026-.081.039-.125.039-.066 0-.124-.028-.175-.084-.05-.056-.075-.128-.075-.216s.025-.16.075-.216c.051-.056.109-.084.175-.084.044 0 .086.013.125.039s.069.062.091.108c.023.047.034.098.034.153zm-.042 0c0-.067-.019-.127-.058-.18s-.089-.079-.15-.079c-.058 0-.107.025-.148.075-.041.051-.061.112-.061.184 0 .076.021.138.064.187.043.048.091.072.145.072.061 0 .111-.026.15-.079s.058-.113.058-.18z" transform="matrix(37.46896283 0 0 37.46896283 262.184552 221.132985)"/><path d="m.325-.292.195.251h.015c.01 0 .017.002.021.006.004.003.007.008.007.014s-.003.011-.007.015-.011.006-.021.006h-.132c-.009 0-.016-.002-.021-.006-.004-.004-.006-.009-.006-.015s.002-.011.006-.014c.005-.004.012-.006.021-.006h.066l-.17-.218-.167.218h.065c.01 0 .017.002.021.006.004.003.007.008.007.014s-.003.011-.007.015-.011.006-.021.006h-.131c-.009 0-.016-.002-.021-.006-.004-.004-.006-.009-.006-.015 0-.004.001-.008.004-.012.003-.003.006-.006.009-.007s.013-.001.03-.001l.192-.251-.184-.238h-.015c-.01 0-.017-.002-.021-.006s-.006-.009-.006-.015.002-.011.006-.015c.004-.003.011-.005.021-.005h.112c.01 0 .017.002.021.005.005.004.007.009.007.015s-.002.011-.007.015c-.004.004-.011.006-.021.006h-.046l.158.204.158-.204h-.046c-.01 0-.018-.002-.022-.006s-.006-.009-.006-.015.002-.011.006-.015c.004-.003.012-.005.022-.005h.112c.01 0 .017.002.021.005.004.004.006.009.006.015s-.002.011-.006.015-.011.006-.021.006h-.016z" transform="matrix(37.46896283 0 0 37.46896283 284.669526 221.132985)"/><path d="m.322-.258v.217h.106c.01 0 .017.002.021.006.004.003.007.008.007.014s-.003.011-.007.015-.011.006-.021.006h-.254c-.01 0-.017-.002-.021-.006s-.007-.009-.007-.015.003-.011.007-.014c.004-.004.011-.006.021-.006h.106v-.217l-.18-.272h-.024c-.01 0-.017-.002-.021-.006-.005-.004-.007-.009-.007-.015s.002-.011.007-.015c.004-.003.011-.005.021-.005h.112c.01 0 .017.002.021.005.005.004.007.009.007.015s-.002.011-.007.015c-.004.004-.011.006-.021.006h-.04l.153.231.15-.231h-.04c-.01 0-.017-.002-.021-.006-.005-.004-.007-.009-.007-.015s.002-.011.007-.015c.004-.003.011-.005.021-.005h.112c.01 0 .017.002.021.005.005.004.007.009.007.015s-.002.011-.007.015c-.004.004-.011.006-.021.006h-.024z" transform="matrix(37.46896283 0 0 37.46896283 307.1545 221.132985)"/><path d="m333.04914956 209.4426683h15.66202646v2.21066881h-15.66202646z" stroke-width="37.468963"/><path d="m.488-.357v.102c0 .088-.021.158-.063.209-.033.04-.074.061-.124.061-.024 0-.047-.005-.068-.015-.022-.009-.04-.023-.055-.04-.009-.011-.02-.028-.031-.052s-.019-.045-.024-.065c-.007-.028-.011-.061-.011-.098v-.102c0-.088.021-.158.063-.21.033-.04.074-.06.124-.06.025 0 .048.004.069.014s.039.023.054.04c.01.011.02.029.031.052.011.024.019.046.025.065.007.028.01.061.01.099zm-.041.005c0-.038-.005-.074-.016-.108-.011-.033-.023-.06-.037-.08-.008-.011-.019-.021-.032-.029-.018-.011-.039-.017-.062-.017-.046 0-.082.023-.108.07s-.039.102-.039.164v.091c0 .039.005.075.016.108.011.034.024.06.038.08.007.011.018.021.031.029.018.012.039.018.063.018.045 0 .081-.024.107-.071s.039-.102.039-.164z" transform="matrix(37.46896283 0 0 37.46896283 352.124448 221.132985)"/><path d="m.488-.357v.102c0 .088-.021.158-.063.209-.033.04-.074.061-.124.061-.024 0-.047-.005-.068-.015-.022-.009-.04-.023-.055-.04-.009-.011-.02-.028-.031-.052s-.019-.045-.024-.065c-.007-.028-.011-.061-.011-.098v-.102c0-.088.021-.158.063-.21.033-.04.074-.06.124-.06.025 0 .048.004.069.014s.039.023.054.04c.01.011.02.029.031.052.011.024.019.046.025.065.007.028.01.061.01.099zm-.041.005c0-.038-.005-.074-.016-.108-.011-.033-.023-.06-.037-.08-.008-.011-.019-.021-.032-.029-.018-.011-.039-.017-.062-.017-.046 0-.082.023-.108.07s-.039.102-.039.164v.091c0 .039.005.075.016.108.011.034.024.06.038.08.007.011.018.021.031.029.018.012.039.018.063.018.045 0 .081-.024.107-.071s.039-.102.039-.164z" transform="matrix(37.46896283 0 0 37.46896283 374.608943 221.132985)"/><path d="m.32-.621v.58h.141c.01 0 .017.002.021.006.004.003.006.008.006.014s-.002.011-.006.015-.011.006-.021.006h-.322c-.01 0-.017-.002-.021-.006-.005-.004-.007-.009-.007-.015s.002-.011.007-.014c.004-.004.011-.006.021-.006h.14v-.523l-.133.042c-.007.001-.012.002-.015.002-.005 0-.009-.002-.013-.006s-.006-.009-.006-.014.001-.009.005-.014c.002-.002.008-.005.016-.008z" transform="matrix(37.46896283 0 0 37.46896283 397.093917 221.132985)"/><path d="m.531-.263.14.044c-.022.078-.057.136-.107.174-.05.038-.114.057-.19.057-.096 0-.174-.032-.235-.097s-.092-.154-.092-.267c0-.119.031-.211.093-.277.061-.066.142-.099.242-.099.088 0 .159.026.214.078.032.03.057.074.073.131l-.143.035c-.009-.037-.026-.067-.053-.088-.027-.022-.06-.032-.098-.032-.053 0-.096.019-.129.057s-.05.099-.05.185c0 .09.017.155.049.193.033.038.075.058.127.058.038 0 .072-.013.099-.037.028-.024.048-.063.06-.115z" transform="matrix(78.1375 0 0 78.1375 39.0413 75.1497)"/><path d="m.208-.716v.263c.045-.051.098-.077.159-.077.032 0 .06.006.086.017.025.012.044.027.057.045s.022.039.026.061c.005.022.007.056.007.103v.304h-.137v-.274c0-.054-.002-.089-.008-.103-.005-.015-.014-.027-.027-.035-.013-.009-.03-.013-.05-.013-.022 0-.043.005-.061.016s-.031.028-.039.05c-.008.023-.013.056-.013.099v.26h-.137v-.716z" transform="matrix(78.1375 0 0 78.1375 95.4697 75.1497)"/><path d="m.372-.165.137.023c-.018.05-.046.088-.083.114-.038.027-.086.04-.143.04-.09 0-.157-.03-.2-.089-.034-.047-.051-.106-.051-.178 0-.086.022-.154.067-.202.045-.049.102-.073.171-.073.077 0 .138.025.182.076.045.051.066.129.064.234h-.344c.001.041.012.073.034.095.021.023.047.034.079.034.021 0 .039-.006.054-.017.015-.012.026-.031.033-.057zm.008-.139c-.001-.039-.011-.07-.031-.09-.019-.021-.043-.031-.071-.031-.03 0-.055.011-.074.032-.02.022-.03.052-.029.089z" transform="matrix(78.1375 0 0 78.1375 143.1997 75.1497)"/><path d="m.524-.365-.135.024c-.005-.027-.015-.047-.031-.061s-.037-.02-.063-.02c-.034 0-.062.011-.082.035s-.03.063-.03.118c0 .062.01.105.031.131.02.025.048.038.083.038.026 0 .047-.008.064-.022.016-.015.028-.041.035-.077l.135.023c-.014.062-.041.109-.081.14-.04.032-.093.048-.159.048-.076 0-.137-.024-.182-.072s-.067-.114-.067-.199.022-.152.067-.2c.046-.047.107-.071.184-.071.063 0 .113.013.151.04.037.028.064.069.08.125z" transform="matrix(78.1375 0 0 78.1375 186.6557 75.1497)"/><path d="m.067 0v-.716h.137v.38l.161-.183h.169l-.178.19.19.329h-.148l-.13-.233-.064.067v.166z" transform="matrix(78.1375 0 0 78.1375 230.1117 75.1497)"/><path d="m.073-.716h.286c.057 0 .099.003.127.007.028.005.053.015.075.03s.04.035.055.06c.014.025.022.052.022.083 0 .034-.009.065-.027.093s-.043.049-.074.063c.044.012.077.034.101.065.023.03.035.066.035.107 0 .033-.008.065-.023.095-.015.031-.036.056-.062.074-.026.019-.058.03-.097.034-.024.003-.082.004-.174.005h-.244zm.145.119v.166h.095c.056 0 .091-.001.104-.003.025-.003.045-.011.059-.025s.021-.033.021-.056c0-.022-.006-.04-.018-.054s-.031-.022-.055-.025c-.014-.002-.055-.003-.123-.003zm0 .285v.191h.134c.052 0 .085-.001.099-.004.021-.004.039-.013.052-.029.014-.015.02-.035.02-.06 0-.022-.005-.04-.015-.055-.011-.015-.026-.026-.045-.033-.02-.007-.063-.01-.129-.01z" transform="matrix(78.1375 0 0 78.1375 273.5687 75.1497)"/><path d="m.174-.36-.124-.023c.014-.05.038-.087.072-.111s.085-.036.152-.036c.062 0 .107.007.137.021.03.015.051.033.063.056.013.022.019.063.019.122l-.002.161c0 .045.002.079.007.1.004.022.012.045.024.07h-.135c-.004-.009-.008-.023-.013-.041-.003-.008-.004-.013-.005-.016-.024.023-.049.04-.076.052-.026.011-.055.017-.085.017-.053 0-.095-.015-.126-.044s-.046-.065-.046-.11c0-.029.007-.055.021-.078s.033-.04.058-.053c.026-.012.062-.023.11-.032.064-.012.108-.023.133-.033v-.014c0-.026-.007-.045-.02-.056-.013-.012-.037-.017-.073-.017-.025 0-.044.005-.057.014-.014.01-.025.027-.034.051zm.184.111c-.018.006-.045.013-.084.021-.038.008-.063.016-.074.024-.018.013-.027.029-.027.048s.007.036.021.05c.015.014.033.021.055.021.025 0 .048-.008.071-.024.016-.013.027-.028.033-.046.003-.012.005-.034.005-.067z" transform="matrix(78.1375 0 0 78.1375 329.9967 75.1497)"/><path d="m.059.034.157.019c.002.018.008.031.018.038.013.01.033.014.061.014.036 0 .063-.005.081-.016.012-.007.021-.018.027-.034.005-.012.007-.033.007-.063v-.076c-.041.056-.093.084-.156.084-.069 0-.124-.029-.165-.088-.032-.047-.048-.105-.048-.174 0-.087.021-.154.063-.199.042-.046.094-.069.156-.069.064 0 .117.028.158.084v-.073h.129v.466c0 .061-.005.107-.015.137s-.025.054-.043.071c-.018.018-.042.031-.073.041-.03.01-.069.014-.115.014-.088 0-.15-.015-.187-.045s-.055-.068-.055-.114c0-.005 0-.01 0-.017zm.123-.304c0 .055.01.095.032.121.021.025.047.038.078.038.034 0 .062-.013.085-.039.024-.026.035-.065.035-.117 0-.053-.011-.093-.033-.119s-.05-.039-.084-.039c-.033 0-.06.012-.081.038-.022.026-.032.065-.032.117z" transform="matrix(78.1375 0 0 78.1375 373.4527 75.1497)"/></g></svg>